<svg id="Ebene_1" data-name="Ebene 1" xmlns="http://www.w3.org/2000/svg" width="245" height="66" viewBox="0 0 245 66"><defs><style>.cls-1{fill:#1d1d1b;}.cls-2{fill:#00a6df;}.cls-3{fill:#76b82a;}</style></defs><path class="cls-1" d="M27.6844,42.341V28.223h5.3013c2.7646,0,5.0443.9006,5.0443,3.6584a3.25,3.25,0,0,1-2.4277,3.0917v.0322A3.4217,3.4217,0,0,1,38.641,38.57c-.0136,3.0235-3.1527,3.7829-5.6213,3.7709Zm5.4-8.4473c1.2666,0,1.9714-.5277,1.9714-1.66,0-1.1338-.7048-1.6632-1.9714-1.6632h-2.37v3.323Zm0,6.1048c1.4334-.0238,2.375-.33,2.4039-1.8828.029-1.6208-.9806-1.8761-2.4039-1.8761h-2.37v3.7589Z"/><path class="cls-1" d="M44.9434,42.341h-3.032V28.223H47.909c2.5332.0426,4.86.8019,4.86,3.6788a3.3616,3.3616,0,0,1-2.8838,3.4236v.034c2.3307.2571,2.3629,1.6906,2.6183,3.6415.1344.8988.33,2.5349.4324,3.34H50.0267c-.1481-1.4691-.2433-2.5656-.4323-3.7656-.1278-.78-.45-1.8829-1.4438-1.9237H44.9434V42.341Zm0-8.0352h2.5382c1.3263-.0189,2.1128-.6844,2.1128-1.9375,0-1.2511-.7865-1.779-2.1128-1.7976H44.9434v3.7351Z"/><polygon class="cls-1" points="8.75 40.102 6.997 40.102 2.884 32.893 2.877 32.932 2.877 42.341 0 42.341 0 28.223 3.354 28.223 7.962 36.357 12.656 28.223 15.957 28.223 15.957 42.341 13.083 42.341 13.083 32.644 13.083 32.607 8.75 40.102 8.75 40.102"/><polygon class="cls-1" points="23.323 42.341 20.231 42.341 20.231 28.223 23.323 28.223 23.323 42.341 23.323 42.341"/><path class="cls-1" d="M55.0862,42.341l5.1-14.118h3.5955L68.69,42.341H65.6446l-1.0163-2.9929H59.0359L57.9786,42.341Zm8.7759-5.337-1.9373-6.0249h-.0357L59.8139,37.004Z"/><path class="cls-1" d="M77.5,36.6482h2.76V40.13a12.154,12.154,0,0,1-2.8174.3184c-2.678,0-3.9667-1.9783-3.9667-5.1669s1.4351-4.4925,3.8628-4.925a7.3956,7.3956,0,0,1,4.6424.9466c.3712-.6367.8478-1.4471,1.2-2.0669l-.2282-.1582c-1.5765-1.0861-3.9888-1.3091-6.1339-1.1354-2.477.1973-6.5712,1.73-6.5712,7.3389,0,5.6128,3.7862,7.2591,6.619,7.3663a16.9566,16.9566,0,0,0,3.3315-.14,20.811,20.811,0,0,0,3.0917-.6333v-7.579H77.5Z"/><path class="cls-1" d="M100.9412,31.2329c-.228-1.6684-1.6666-2.3494-3.2191-2.3494-3.5053,0-4.5659,3.1818-4.5659,5.9857,0,2.8021,1.0606,5.9839,4.5659,5.9839a3.1946,3.1946,0,0,0,3.3708-2.4634h1.3243a4.5487,4.5487,0,0,1-4.6951,3.599c-4.1488,0-5.89-3.3333-5.89-7.12,0-3.752,1.76-7.1228,5.89-7.1228,2.2335,0,4.3547,1.0231,4.5454,3.4865Z"/><path class="cls-1" d="M110.9888,41.9887c-3.9206,0-6.1-2.86-6.1-7.12,0-4.2628,2.179-7.1228,6.1-7.1228s6.0981,2.86,6.0981,7.1228C117.0869,39.1287,114.9094,41.9887,110.9888,41.9887Zm0-1.1356c3.4083,0,4.7718-2.9928,4.7718-5.9839,0-2.9928-1.3635-5.9857-4.7718-5.9857-3.41,0-4.7736,2.9929-4.7736,5.9857C106.2152,37.86,107.579,40.8531,110.9888,40.8531Z"/><path class="cls-1" d="M120.5785,28.0306h1.4028L129.52,40.0582h.0374V28.0306h1.2308V41.7061h-1.5526L121.8484,29.888h-.0374V41.7061h-1.2325Z"/><path class="cls-1" d="M138.6341,41.9887a3.9587,3.9587,0,0,1-4.0721-3.8441h1.3261c.0375,2.1025,1.5918,2.7085,3.4286,2.7085,1.5339,0,3.2943-.89,3.2943-2.6335,0-1.3621-.9841-2.0072-2.14-2.3852-2.2148-.7388-5.5874-1.44-5.5874-4.3939,0-2.3866,2.1979-3.6941,4.3566-3.6941,1.7994,0,4.1471.6264,4.45,3.2583h-1.3245c-.0373-1.6853-1.5729-2.1212-2.974-2.1212-1.42,0-3.1818.7184-3.1818,2.3867,0,3.8816,7.7272,2.1212,7.7272,6.8369C143.9371,41.08,141.38,41.9887,138.6341,41.9887Z"/><path class="cls-1" d="M148.9983,28.0306v8.844c.0953,2.4821,1.5152,3.9785,3.7691,3.9785s3.6739-1.4964,3.7691-3.9785v-8.844h1.2309V36.895c-.0375,2.935-1.6854,5.0937-5,5.0937s-4.9624-2.1587-5-5.0937V28.0306Z"/><path class="cls-1" d="M162.243,41.7061V28.0306h1.2325V40.5688H170.35v1.1373Z"/><path class="cls-1" d="M174.616,29.1679h-4.4126V28.0306h10v1.1373h-4.3378l-.0186,12.5382h-1.2121Z"/><path class="cls-1" d="M183.8244,41.7061V27.9744h1.2307V41.7061Z"/><path class="cls-1" d="M189.8322,28.0306h1.401L198.77,40.0582h.0392V28.0306H200.04V41.7061h-1.5525L191.1,29.888h-.0375V41.7061h-1.2307Z"/><path class="cls-1" d="M214.1867,34.7363v6.4011a12.7714,12.7714,0,0,1-4.9064.8513c-3.73,0-5.8324-2.9163-5.8324-7.12,0-3.524,1.8743-7.1228,5.8324-7.1228,2.2744,0,4.6032,1.2325,4.811,3.6567H212.69c-.2469-1.7433-1.7808-2.52-3.41-2.52-3.2754,0-4.5063,3.1426-4.5063,5.9857,0,3.483,1.4573,5.9839,5.1515,5.9839a10.9859,10.9859,0,0,0,3.03-.5687V35.8719h-3.4287V34.7363Z"/><path class="cls-1" d="M93.175,65.0647v-13.73h1.2307v13.73Z"/><path class="cls-1" d="M98.975,51.3909h1.401l7.5367,12.0259h.039V51.3909h1.2309V65.0647H107.63l-7.3867-11.8181h-.0375V65.0647H98.975Z"/><path class="cls-1" d="M116.2526,52.5265H111.84V51.3909h10v1.1356h-4.3378l-.0186,12.5382h-1.2121Z"/><path class="cls-1" d="M124.5144,65.0647V51.3909h8.1239v1.1356h-6.893v4.9064h6.6291v1.1354h-6.6291v5.3608h7.1772v1.1356Z"/><path class="cls-1" d="M137.6638,65.0647h-1.2309V51.3909h4.4688a5.6033,5.6033,0,0,1,3.221.72A3.1948,3.1948,0,0,1,142.89,57.906v.0375c1.7432.2843,2.1212,1.4573,2.2931,3.0489.2452,2.2166.17,3.24.7185,4.0723h-1.42a10.9769,10.9769,0,0,1-.4732-2.8414c-.2844-3.1256-.4733-3.6737-2.9554-3.6737h-3.3894Zm2.6318-7.6524c1.7432,0,3.9019-.1123,3.9019-2.4413,0-2.6335-2.4616-2.4445-3.7691-2.4445h-2.7646v4.8858Z"/><path class="cls-1" d="M149.6213,51.3909h1.4013l7.5364,12.0259h.0392V51.3909h1.2308V65.0647h-1.5526L150.89,53.2466h-.0375V65.0647h-1.2309Z"/><path class="cls-1" d="M162.8661,65.0647l5.417-13.6738h1.4385l5.4545,13.6738h-1.3432l-1.4589-3.6926h-6.7994l-1.4386,3.6926Zm9.0721-4.83-2.9536-7.7085-3.0117,7.7085Z"/><path class="cls-1" d="M179.2534,52.5265h-4.4127V51.3909h10v1.1356H180.503l-.0189,12.5382H179.272Z"/><path class="cls-1" d="M187.8557,65.0647v-13.73h1.2307v13.73Z"/><path class="cls-1" d="M199.0336,65.349c-3.9206,0-6.1-2.86-6.1-7.1212s2.1791-7.1212,6.1-7.1212,6.0979,2.86,6.0979,7.1212S202.9542,65.349,199.0336,65.349Zm0-1.1373c3.4082,0,4.7718-2.9928,4.7718-5.9839,0-2.9928-1.3636-5.9839-4.7718-5.9839-3.41,0-4.7736,2.9911-4.7736,5.9839C194.26,61.2189,195.6236,64.2117,199.0336,64.2117Z"/><path class="cls-1" d="M208.9262,51.3909h1.4028l7.5382,12.0259h.0375V51.3909h1.2308V65.0647h-1.5526l-7.3867-11.8181h-.0375V65.0647h-1.2325Z"/><path class="cls-1" d="M221.9632,65.0647l5.417-13.6738h1.4385l5.4545,13.6738H232.93l-1.4589-3.6926h-6.7994l-1.4385,3.6926Zm9.0721-4.83-2.9536-7.7085L225.07,60.235Z"/><path class="cls-1" d="M236.8932,65.0647V51.3909h1.2326V63.9291H245v1.1356Z"/><path class="cls-2" d="M58.5736,16.4935s19.4091-28.5016,32.9252-6.3381c.3192.5244,2.32.1941,2.0243-.3439-12.3637-22.48-35.54,3.7232-37.687,6.3619-.749.7406,2.3367.7524,2.7375.32Z"/><path class="cls-3" d="M114.088,2.7142C96.5142,21.216,84.7336,19.0981,78.7769,9.9648c-.235-.5312-3.7768-.01-3.3614.5175,14.8772,18.9409,37.2348-4.5369,40.6933-7.22.5712-.5686-.8061-.9227-2.0208-.5482Z"/></svg>