<svg xmlns="http://www.w3.org/2000/svg" width="200.002" height="180.497" viewBox="0 0 1938 1749">
  <defs>
    <style>
      .cls-1 {
        fill: #1f2215;
      }

      .cls-1, .cls-2, .cls-3 {
        fill-rule: evenodd;
      }

      .cls-2 {
        fill: #ffba00;
      }

      .cls-3 {
        fill: #112c38;
      }
    </style>
  </defs>
  <path id="Заливка_цветом_1" data-name="Заливка цветом 1" class="cls-1" d="M966,82.967l120.73,212.324-374.686,645.3h87.427L682.9,1148.75H345.681Zm-29.142,724.4L1161.67,420.187l224.81,387.179H936.858ZM274.907,1273.65h337.22l-116.57,208.16H154.174ZM849.43,1481.81l120.733-208.16H1353.18l120.73,208.16H849.43Z"/>
  <path id="Заливка_цветом_2" data-name="Заливка цветом 2" class="cls-2" d="M741.186,1148.75L861.92,940.589h599.5l316.41,541.221h-249.8l-191.5-333.06H741.186ZM549.679,1481.81l120.733-208.16H911.878l-116.57,208.16H549.679Z"/>
  <path id="Заливка_цветом_3" data-name="Заливка цветом 3" class="cls-3" d="M183,1571l16-18s-10.869-19.19-44-18c0,0-38.757-2.67-39,34,0,0-6.546,25.08,38,35,0,0,20.42,3.36,20,14,0,0,.457,9.84-18,10,0,0-12.927.69-30-13l-15,18s14.935,19.76,46,18c0,0,42.1,3.83,43-36,0,0,4.708-25.35-37-33,0,0-21.252-3.74-22-14,0,0-.815-9.15,16-10C157,1558,170.281,1556.87,183,1571Zm29-34v23h32v89h25v-89h32v-23H212Zm106,0h50s35.353,0.01,35,33c0,0,3.359,27.18-21,34v2l25,36h1l40-105h29l43,112H494l-8-23H440l-8,23H384l-24-35v-2H342v37H318V1537Zm24,23v30h22s13.059-3.08,13-15c0,0,2.34-10.15-13-15H342Zm106,45,14-40h1l14,40H448Zm66-68v23h32v89h25v-89h32v-23H514Zm106,0v112h78v-23H644v-22h48v-22H644v-22h52v-23H620Zm147,46v22h23v21s-49.466,13.23-51-33c0,0-1.524-31.84,31-34,0,0,17.557-1.59,30,13l17-20s-16.551-18.12-46-17c0,0-56.356-3.03-58,59,0,0-3.281,54.89,58,57,0,0,25.7.5,44-10v-58H767Zm82-46v112h24V1537H849Zm139,36,17-19s-11.729-19.67-44-19c0,0-55.887-1.12-57,57,0,0-3.638,57.58,57,59,0,0,30.285.88,44-19l-18-18s-10.188,14.49-25,13c0,0-30.883,2.41-32-34,0,0-2.719-31.75,31-34C961,1559,976.156,1558.08,988,1573Zm51,76,42-112h29l43,112h-26l-8-23h-46l-8,23h-26Zm42-44,14-40h1l14,40h-29Zm80-68v112h67v-23h-43v-89h-24Zm84,0v112h67v-23h-43v-89h-24Zm96,0v112h24V1537h-24Zm44,112,42-112h29l43,112h-26l-8-23h-46l-8,23h-26Zm42-44,14-40h1l14,40h-29Zm81,44V1537h24l52,71h1v-71h24v112h-24l-52-71h-1v71h-24Zm202-35s-10.3,13.73-26,13c0,0-29.49.97-31-34,0,0-1.18-31.62,31-34,0,0,18.19.2,26,14l18-19s-12.21-20.27-45-19c0,0-53.41-2.1-56,56,0,0-3.65,59.18,57,60,0,0,30.24,2.45,44-19Zm33,35V1537h76v23h-52v22h48v22h-48v22h54v23h-78Z"/>
</svg>
